<svg width="18" height="18" viewBox="0 0 18 18" xmlns="http://www.w3.org/2000/svg">
<path d="M13.5 16.5V15H12C11.5858 15 11.25 14.6642 11.25 14.25C11.25 13.8358 11.5858 13.5 12 13.5H13.5V12C13.5 11.5858 13.8358 11.25 14.25 11.25C14.6642 11.25 15 11.5858 15 12V13.5H16.5C16.9142 13.5 17.25 13.8358 17.25 14.25C17.25 14.6642 16.9142 15 16.5 15H15V16.5C15 16.9142 14.6642 17.25 14.25 17.25C13.8358 17.25 13.5 16.9142 13.5 16.5ZM10.5 6C10.5 4.34315 9.15685 3 7.5 3C5.84315 3 4.5 4.34315 4.5 6C4.5 7.65685 5.84315 9 7.5 9C9.15685 9 10.5 7.65685 10.5 6ZM12 6C12 7.45875 11.305 8.75415 10.229 9.57642C10.8579 9.85442 11.4439 10.228 11.9648 10.6875C12.2754 10.9615 12.3053 11.4352 12.0315 11.7458C11.7575 12.0564 11.2838 12.0863 10.9731 11.8125C10.2154 11.1441 9.28064 10.7083 8.28149 10.5579C7.28239 10.4075 6.26098 10.5487 5.34009 10.9644C4.41916 11.3801 3.63746 12.0528 3.08936 12.9016C2.54125 13.7504 2.24994 14.7396 2.25 15.75C2.25 16.1642 1.9142 16.5 1.5 16.5C1.08581 16.5 0.750023 16.1642 0.75 15.75C0.749937 14.4509 1.12489 13.1792 1.82959 12.0879C2.53424 10.9967 3.53879 10.1321 4.72266 9.59766C4.73841 9.59055 4.75447 9.5834 4.77026 9.57642C3.69457 8.75413 3 7.45854 3 6C3 3.51472 5.01472 1.5 7.5 1.5C9.98528 1.5 12 3.51472 12 6Z" />
</svg>
